<svg data-v-fde0c5aa="" xmlns="http://www.w3.org/2000/svg" viewBox="0 0 300 300" class="icon"><!----><defs data-v-fde0c5aa=""><!----></defs><rect data-v-fde0c5aa="" fill="transparent" x="0" y="0" width="300px" height="300px" class="logo-background-square"></rect><!----><defs data-v-fde0c5aa=""><linearGradient data-v-fde0c5aa="" gradientTransform="rotate(25)" id="baf649e0-e897-4765-9d7a-2883bfe4c22d" x1="0%" y1="0%" x2="100%" y2="0%"><stop data-v-fde0c5aa="" offset="0%" stop-color="#041804" stop-opacity="1"></stop><stop data-v-fde0c5aa="" offset="100%" stop-opacity="1"></stop></linearGradient></defs><g data-v-fde0c5aa="" id="98c7687c-4be6-4047-b74a-f6b1d512161f" fill="url(#baf649e0-e897-4765-9d7a-2883bfe4c22d)" stroke="none" transform="matrix(2.279710558321891,0,0,2.279710558321891,36.013920949198436,36.01161042292676)"><path d="M92.639 35.129L52.219 2.456a3.175 3.175 0 0 0-2.406-.68c-.726-.005-1.446.206-2.031.68L7.36 35.129c-.781.632-1.22 1.595-1.185 2.599s.541 1.934 1.365 2.508l5.297 3.697v31.229c0 1.131.598 2.179 1.573 2.753l33.74 19.893c.009.005.02.008.03.013.167.096.349.159.531.224.083.029.16.076.245.099.236.062.481.09.727.096.03.001.06.013.09.013h.003c.052 0 .104-.018.156-.02.222-.012.444-.03.661-.088.077-.02.146-.064.223-.091.184-.063.371-.124.544-.223.007-.004.012-.011.02-.015.005-.004.012-.004.018-.008l33.737-19.893a3.193 3.193 0 0 0 1.573-2.753V44.25l5.752-4.015a3.194 3.194 0 0 0 .179-5.106zM52.986 56.553V11.296l32.328 26.132-32.328 19.125zm-6.391-44.919v44.938L14.686 37.428l31.909-25.794zm-.018 77.827L19.23 73.337V47.859l27.347 16.123v25.479zm33.737-16.124L52.969 89.461V63.982l27.346-16.123v25.478z"></path></g><!----></svg>