<?xml version="1.0" encoding="iso-8859-1"?>
<!-- Generator: Adobe Illustrator 21.1.0, SVG Export Plug-In . SVG Version: 6.00 Build 0)  -->
<svg version="1.1" id="Layer_1" xmlns="http://www.w3.org/2000/svg" xmlns:xlink="http://www.w3.org/1999/xlink" x="0px" y="0px"
	 viewBox="0 0 347 385" style="enable-background:new 0 0 347 385;" xml:space="preserve">
<style type="text/css">
	.st0{fill:url(#SVGID_1_);}
	.st1{fill:#FFFFFF;}
	.st2{fill:#F1636A;}
	.st3{fill:#86B4B4;}
	.st4{fill:#FFF5AE;}
	.st5{fill:#54A9DE;}
</style>
<linearGradient id="SVGID_1_" gradientUnits="userSpaceOnUse" x1="77.58" y1="110.5214" x2="254.1138" y2="287.0552">
	<stop  offset="0" style="stop-color:#B3C3CF;stop-opacity:0.3"/>
	<stop  offset="1" style="stop-color:#D7E4ED;stop-opacity:0"/>
</linearGradient>
<polyline class="st0" points="0.747,245.041 141.929,386.223 348.281,386.223 348.281,169.87 177.074,-1.338 "/>
<rect x="0.747" y="-1.338" class="st1" width="176.326" height="246.379"/>
<rect x="36.197" y="47.321" class="st2" width="18.724" height="8.533"/>
<rect x="61.663" y="47.321" class="st3" width="26.706" height="8.533"/>
<rect x="56.859" y="66.649" class="st3" width="50.652" height="8.536"/>
<rect x="95.189" y="47.321" class="st4" width="26.509" height="8.533"/>
<rect x="36.466" y="66.649" class="st5" width="12.027" height="8.536"/>
<rect x="24.123" y="27.991" class="st5" width="40.198" height="8.536"/>
<rect x="36.197" y="113.795" class="st3" width="18.724" height="8.533"/>
<rect x="61.663" y="113.795" class="st3" width="26.706" height="8.533"/>
<rect x="36.466" y="133.122" class="st4" width="50.652" height="8.536"/>
<rect x="95.189" y="113.795" class="st4" width="26.509" height="8.533"/>
<rect x="95.483" y="133.122" class="st2" width="12.027" height="8.536"/>
<rect x="113.438" y="133.122" class="st2" width="12.027" height="8.536"/>
<rect x="24.175" y="94.464" class="st5" width="30.402" height="8.536"/>
<rect x="36.197" y="180.331" class="st4" width="18.724" height="8.533"/>
<rect x="61.663" y="180.331" class="st2" width="26.706" height="8.533"/>
<rect x="36.466" y="199.658" class="st2" width="50.652" height="8.536"/>
<rect x="95.189" y="180.331" class="st3" width="26.509" height="8.533"/>
<rect x="95.483" y="199.658" class="st5" width="12.027" height="8.536"/>
<rect x="113.438" y="199.658" class="st3" width="12.027" height="8.536"/>
<rect x="24.175" y="161" class="st5" width="30.402" height="8.536"/>
</svg>
